<mxfile host="app.diagrams.net" modified="2022-07-25T01:28:59.461Z" agent="5.0 (Macintosh; Intel Mac OS X 10_15_7) AppleWebKit/537.36 (KHTML, like Gecko) Chrome/103.0.0.0 Safari/537.36" etag="QX55PcALlG1pUamoYTyL" version="20.2.0" type="github">
  <diagram id="ceDLgtx6U27CSiE52Spv" name="第 1 页">
    <mxGraphModel dx="757" dy="491" grid="1" gridSize="10" guides="1" tooltips="1" connect="1" arrows="1" fold="1" page="1" pageScale="1" pageWidth="827" pageHeight="1169" background="#B0E3E6" math="0" shadow="0">
      <root>
        <mxCell id="0" />
        <mxCell id="1" parent="0" />
        <mxCell id="qH7-m2q8fvSFPMJAMwVf-1" value="&lt;font style=&quot;font-size: 18px;&quot;&gt;考察知识点&lt;/font&gt;" style="rounded=1;whiteSpace=wrap;html=1;strokeColor=#b85450;fillColor=#f8cecc;sketch=1;" vertex="1" parent="1">
          <mxGeometry x="70" y="220" width="120" height="60" as="geometry" />
        </mxCell>
        <mxCell id="qH7-m2q8fvSFPMJAMwVf-2" value="" style="shape=curlyBracket;whiteSpace=wrap;html=1;rounded=1;fontSize=18;fontColor=#1A1A1A;strokeColor=#1A1A1A;fillColor=#F08E81;sketch=1;" vertex="1" parent="1">
          <mxGeometry x="200" y="135" width="40" height="230" as="geometry" />
        </mxCell>
        <mxCell id="qH7-m2q8fvSFPMJAMwVf-3" value="flex布局" style="rounded=1;whiteSpace=wrap;html=1;sketch=1;hachureGap=4;fontFamily=Architects Daughter;fontSource=https%3A%2F%2Ffonts.googleapis.com%2Fcss%3Ffamily%3DArchitects%2BDaughter;fontSize=20;" vertex="1" parent="1">
          <mxGeometry x="270" y="220" width="160" height="60" as="geometry" />
        </mxCell>
        <mxCell id="qH7-m2q8fvSFPMJAMwVf-4" value="媒体查询" style="rounded=1;whiteSpace=wrap;html=1;sketch=1;hachureGap=4;fontFamily=Architects Daughter;fontSource=https%3A%2F%2Ffonts.googleapis.com%2Fcss%3Ffamily%3DArchitects%2BDaughter;fontSize=20;" vertex="1" parent="1">
          <mxGeometry x="270" y="140" width="160" height="40" as="geometry" />
        </mxCell>
        <mxCell id="qH7-m2q8fvSFPMJAMwVf-5" value="position定位" style="rounded=1;whiteSpace=wrap;html=1;sketch=1;hachureGap=4;fontFamily=Architects Daughter;fontSource=https%3A%2F%2Ffonts.googleapis.com%2Fcss%3Ffamily%3DArchitects%2BDaughter;fontSize=20;" vertex="1" parent="1">
          <mxGeometry x="270" y="310" width="160" height="60" as="geometry" />
        </mxCell>
        <mxCell id="qH7-m2q8fvSFPMJAMwVf-7" value="&lt;font style=&quot;font-size: 14px;&quot;&gt;响应式布局&lt;/font&gt;" style="ellipse;shape=cloud;whiteSpace=wrap;html=1;rounded=1;sketch=1;hachureGap=4;fontFamily=Architects Daughter;fontSource=https%3A%2F%2Ffonts.googleapis.com%2Fcss%3Ffamily%3DArchitects%2BDaughter;fontSize=20;" vertex="1" parent="1">
          <mxGeometry x="490" y="90" width="120" height="80" as="geometry" />
        </mxCell>
        <mxCell id="qH7-m2q8fvSFPMJAMwVf-8" value="" style="endArrow=none;dashed=1;html=1;dashPattern=1 3;strokeWidth=2;rounded=1;sketch=1;hachureGap=4;fontFamily=Architects Daughter;fontSource=https%3A%2F%2Ffonts.googleapis.com%2Fcss%3Ffamily%3DArchitects%2BDaughter;fontSize=14;startSize=14;endSize=14;sourcePerimeterSpacing=8;targetPerimeterSpacing=8;curved=1;entryX=0.1;entryY=0.55;entryDx=0;entryDy=0;entryPerimeter=0;" edge="1" parent="1" target="qH7-m2q8fvSFPMJAMwVf-7">
          <mxGeometry width="50" height="50" relative="1" as="geometry">
            <mxPoint x="430" y="170" as="sourcePoint" />
            <mxPoint x="480" y="120" as="targetPoint" />
          </mxGeometry>
        </mxCell>
        <mxCell id="qH7-m2q8fvSFPMJAMwVf-9" value="&lt;font style=&quot;font-size: 14px;&quot;&gt;section&lt;br&gt;宽度自适应&lt;/font&gt;" style="ellipse;shape=cloud;whiteSpace=wrap;html=1;rounded=1;sketch=1;hachureGap=4;fontFamily=Architects Daughter;fontSource=https%3A%2F%2Ffonts.googleapis.com%2Fcss%3Ffamily%3DArchitects%2BDaughter;fontSize=20;" vertex="1" parent="1">
          <mxGeometry x="510" y="200" width="120" height="80" as="geometry" />
        </mxCell>
        <mxCell id="qH7-m2q8fvSFPMJAMwVf-10" value="" style="endArrow=none;dashed=1;html=1;dashPattern=1 3;strokeWidth=2;rounded=1;sketch=1;hachureGap=4;fontFamily=Architects Daughter;fontSource=https%3A%2F%2Ffonts.googleapis.com%2Fcss%3Ffamily%3DArchitects%2BDaughter;fontSize=14;startSize=14;endSize=14;sourcePerimeterSpacing=8;targetPerimeterSpacing=8;curved=1;entryX=0.1;entryY=0.55;entryDx=0;entryDy=0;entryPerimeter=0;exitX=1;exitY=0.5;exitDx=0;exitDy=0;" edge="1" parent="1" target="qH7-m2q8fvSFPMJAMwVf-9" source="qH7-m2q8fvSFPMJAMwVf-3">
          <mxGeometry width="50" height="50" relative="1" as="geometry">
            <mxPoint x="450" y="280" as="sourcePoint" />
            <mxPoint x="500" y="230" as="targetPoint" />
          </mxGeometry>
        </mxCell>
        <mxCell id="qH7-m2q8fvSFPMJAMwVf-11" value="footer需要固定&lt;br&gt;到页面最底端" style="ellipse;shape=cloud;whiteSpace=wrap;html=1;rounded=1;sketch=1;hachureGap=4;fontFamily=Architects Daughter;fontSource=https%3A%2F%2Ffonts.googleapis.com%2Fcss%3Ffamily%3DArchitects%2BDaughter;fontSize=14;" vertex="1" parent="1">
          <mxGeometry x="490" y="300" width="200" height="90" as="geometry" />
        </mxCell>
        <mxCell id="qH7-m2q8fvSFPMJAMwVf-12" value="" style="endArrow=none;dashed=1;html=1;dashPattern=1 3;strokeWidth=2;rounded=1;sketch=1;hachureGap=4;fontFamily=Architects Daughter;fontSource=https%3A%2F%2Ffonts.googleapis.com%2Fcss%3Ffamily%3DArchitects%2BDaughter;fontSize=14;startSize=14;endSize=14;sourcePerimeterSpacing=8;targetPerimeterSpacing=8;curved=1;entryX=0.075;entryY=0.506;entryDx=0;entryDy=0;entryPerimeter=0;" edge="1" parent="1" target="qH7-m2q8fvSFPMJAMwVf-11">
          <mxGeometry width="50" height="50" relative="1" as="geometry">
            <mxPoint x="430" y="350" as="sourcePoint" />
            <mxPoint x="480" y="300" as="targetPoint" />
          </mxGeometry>
        </mxCell>
      </root>
    </mxGraphModel>
  </diagram>
</mxfile>
